<svg height="512pt" viewBox="0 -156 512 512" width="512pt" xmlns="http://www.w3.org/2000/svg"><path d="m512 39.132812c0 21.613282-114.613281 48.542969-256 48.542969s-256-26.929687-256-48.542969c0-21.609374 114.613281-39.132812 256-39.132812s256 17.519531 256 39.132812zm0 0" fill="#2c2c2c"/><path d="m0 129.199219c0 21.613281 114.613281 39.136719 256 39.136719s256-17.523438 256-39.136719v-90.066407c0 21.613282-114.613281 39.132813-256 39.132813s-256-17.519531-256-39.132813zm0 0" fill="#383838"/><path d="m0 39.132812c0 21.613282 114.613281 48.542969 256 48.542969v-87.675781c-141.386719 0-256 17.519531-256 39.132812zm0 0" fill="#383838"/><path d="m0 39.132812v90.066407c0 21.613281 114.613281 39.136719 256 39.136719v-90.070313c-141.386719 0-256-17.519531-256-39.132813zm0 0" fill="#474747"/><path d="m298.511719 200.789062h-85.023438c-16.410156 0-29.757812-13.351562-29.757812-29.757812v-94.164062c0-16.410157 13.351562-29.757813 29.757812-29.757813h85.023438c16.410156 0 29.757812 13.347656 29.757812 29.757813v94.164062c0 16.40625-13.351562 29.757812-29.757812 29.757812zm-82.851563-31.929687h80.679688v-89.824219h-80.679688zm0 0" fill="#fff566"/><g fill="#fffd78"><path d="m365 107.984375h-92.660156c-8.816406 0-15.964844 7.148437-15.964844 15.964844 0 8.816406 7.148438 15.964843 15.964844 15.964843h92.660156c8.816406 0 15.964844-7.148437 15.964844-15.964843 0-8.816407-7.148438-15.964844-15.964844-15.964844zm0 0"/><path d="m215.660156 168.859375v-89.824219h40.339844v-31.929687h-42.511719c-16.410156 0-29.757812 13.351562-29.757812 29.757812v94.164063c0 16.410156 13.351562 29.757812 29.757812 29.757812h42.511719v-31.929687h-40.339844zm0 0"/></g></svg>