<svg height="512pt" viewBox="0 -31 512.00026 512" width="512pt" xmlns="http://www.w3.org/2000/svg"><path d="m399.347656 209.8125s0 0-.015625 0l-62.347656-.042969c-7.332031 0-13.582031-5.3125-14.765625-12.554687l-19.695312-119.867188c-.71875-4.347656.511718-8.78125 3.351562-12.132812 2.851562-3.347656 7.023438-5.28125 11.425781-5.28125 3.039063.5 84.675781 13.9375 74.144531 12.203125l22.621094 119.914062c.832032 4.390625-.339844 8.910157-3.191406 12.347657-2.835938 3.425781-7.066406 5.414062-11.527344 5.414062zm0 0" fill="#f67a21"/><path d="m176.714844 209.769531h-62.347656c-4.464844 0-8.691407-1.992187-11.53125-5.429687-2.851563-3.425782-4.023438-7.945313-3.1875-12.335938l22.621093-119.867187c3.035157-.5 84.675781-13.9375 74.140625-12.203125 4.40625 0 8.574219 1.929687 11.429688 5.28125 2.835937 3.351562 4.066406 7.785156 3.347656 12.132812l-19.695312 119.867188c-1.183594 7.242187-7.445313 12.554687-14.777344 12.554687zm0 0" fill="#fb992d"/><path d="m487.003906 297.871094c-7.195312-21.875-16.78125-50.046875-29.367187-87.203125-5.996094-18.582031-23.078125-30.867188-42.554688-30.867188h-38.355469c-8.277343 0-14.984374 6.710938-14.984374 14.984375v239.734375c0 8.277344 6.707031 14.984375 14.984374 14.984375h88.632813c24.730469 0 45.527344-20.226562 46.21875-44.949218l.296875-10.789063c.601562-21.277344 0-22.472656-24.871094-95.894531zm0 0" fill="#cc2e43"/><path d="m96.632812 179.800781c-19.480468 0-36.558593 12.285157-42.554687 30.867188-13.183594 39.253906-23.074219 68.625-30.5625 90.800781-23.675781 68.921875-23.976563 70.421875-23.375 92.296875v10.789063c0 24.828124 20.121094 44.953124 44.949219 44.953124h92.023437c8.273438 0 14.859375-6.710937 14.859375-14.984374v-239.738282c0-8.273437-6.710937-14.980468-14.984375-14.980468h-40.355469zm0 0" fill="#e63950"/><path d="m122.003906 194.785156v239.734375c0 8.277344 6.710938 14.984375 14.984375 14.984375h239.734375c8.277344 0 14.984375-6.707031 14.984375-14.984375v-239.734375c0-8.273437-6.707031-14.984375-14.984375-14.984375h-239.734375c-8.273437 0-14.984375 6.710938-14.984375 14.984375zm0 0" fill="#ec5569"/><path d="m256.855469 179.800781h119.867187c8.277344 0 14.984375 6.710938 14.984375 14.984375v239.734375c0 8.277344-6.707031 14.984375-14.984375 14.984375h-119.867187zm0 0" fill="#e63950"/><path d="m331.773438 284.6875c0 8.390625-6.589844 14.984375-14.984376 14.984375h-119.867187c-8.390625 0-14.984375-6.59375-14.984375-14.984375 0-8.394531 6.59375-14.984375 14.984375-14.984375h119.867187c8.394532 0 14.984376 6.589844 14.984376 14.984375zm0 0" fill="#5a5a5a"/><path d="m286.824219 329.636719c-8.28125 0-14.984375-6.703125-14.984375-14.984375v-29.964844c0-8.28125 6.703125-14.984375 14.984375-14.984375s14.980469 6.703125 14.980469 14.984375v29.964844c0 8.28125-6.699219 14.984375-14.980469 14.984375zm0 0" fill="#c5d3dd"/><path d="m331.773438 284.6875c0 8.390625-6.589844 14.984375-14.984376 14.984375h-59.933593v-29.96875h59.933593c8.394532 0 14.984376 6.589844 14.984376 14.984375zm0 0" fill="#444"/><path d="m387.210938 64.429688-59.933594-59.933594c-2.695313-2.996094-6.589844-4.496094-10.488282-4.496094h-119.867187c-3.894531 0-7.792969 1.5-10.488281 4.496094l-59.933594 59.933594c-4.496094 4.195312-5.691406 10.488281-3.296875 16.183593 2.398437 5.691407 7.792969 9.289063 13.785156 9.289063h239.738281c5.992188 0 11.386719-3.597656 13.785157-9.289063 2.394531-5.695312 1.195312-11.988281-3.300781-16.183593zm0 0" fill="#ffb739"/><path d="m390.511719 80.613281c-2.398438 5.691407-7.792969 9.289063-13.789063 9.289063h-119.867187v-89.902344h59.933593c3.898438 0 7.792969 1.5 10.488282 4.496094l59.933594 59.933594c4.496093 4.195312 5.695312 10.488281 3.300781 16.183593zm0 0" fill="#fb992d"/></svg>