<svg height="512pt" viewBox="-4 0 512 512" width="512pt" xmlns="http://www.w3.org/2000/svg"><path d="m329.761719 69.421875c-4.792969 0-8.675781-3.882813-8.675781-8.675781v-34.710938c0-4.792968-3.886719-8.679687-8.679688-8.679687h-121.492188c-4.792968 0-8.675781 3.886719-8.675781 8.679687v34.710938c0 4.792968-3.886719 8.675781-8.679687 8.675781-4.792969 0-8.675782-3.882813-8.675782-8.675781v-34.710938c0-14.378906 11.65625-26.035156 26.03125-26.035156h121.492188c14.378906 0 26.035156 11.65625 26.035156 26.035156v34.710938c0 4.792968-3.886718 8.675781-8.679687 8.675781zm0 0" fill="#59474e"/><path d="m52.066406 477.289062h34.714844v26.03125c0 4.792969-3.886719 8.679688-8.679688 8.679688h-17.355468c-4.792969 0-8.679688-3.886719-8.679688-8.679688zm0 0" fill="#59474e"/><path d="m416.542969 477.289062h34.710937v26.03125c0 4.792969-3.886718 8.679688-8.675781 8.679688h-17.359375c-4.792969 0-8.675781-3.886719-8.675781-8.679688zm0 0" fill="#59474e"/><path d="m503.320312 147.527344v242.980468l-86.777343 86.78125h-329.761719l-86.78125-86.78125v-242.980468l86.78125-86.78125h329.761719zm0 0" fill="#af8066"/><g fill="#7f5b53"><path d="m86.78125 60.746094-86.78125 86.78125v-60.746094c0-14.378906 11.65625-26.035156 26.035156-26.035156zm0 0"/><path d="m503.320312 86.78125v60.746094l-86.777343-86.78125h60.746093c14.378907 0 26.03125 11.65625 26.03125 26.035156zm0 0"/><path d="m503.320312 390.507812v60.746094c0 14.378906-11.652343 26.035156-26.03125 26.035156h-60.746093zm0 0"/><path d="m86.78125 477.289062h-60.746094c-14.378906 0-26.035156-11.65625-26.035156-26.035156v-60.746094zm0 0"/></g><path d="m51.203125 169.039062 97.457031-36.695312c4.484375-1.6875 9.492188.578125 11.179688 5.066406l36.695312 97.457032c1.6875 4.484374-.578125 9.488281-5.066406 11.175781l-97.453125 36.695312c-4.488281 1.6875-9.492187-.578125-11.179687-5.0625l-36.695313-97.457031c-1.6875-4.484375.578125-9.492188 5.0625-11.179688zm0 0" fill="#b49aca"/><path d="m363.308594 247.316406 90.183594 52.070313c4.152343 2.394531 5.574218 7.703125 3.175781 11.851562l-52.066407 90.183594c-2.394531 4.152344-7.703124 5.574219-11.855468 3.179687l-90.183594-52.070312c-4.148438-2.394531-5.570312-7.703125-3.175781-11.851562l52.066406-90.1875c2.398437-4.148438 7.707031-5.570313 11.855469-3.175782zm0 0" fill="#b49aca"/><path d="m208.335938 173.492188 103.855468-7.644532c4.777344-.351562 8.9375 3.238282 9.289063 8.015625l7.648437 103.855469c.351563 4.78125-3.238281 8.941406-8.015625 9.292969l-103.855469 7.644531c-4.78125.351562-8.941406-3.238281-9.292968-8.015625l-7.644532-103.855469c-.355468-4.78125 3.234376-8.941406 8.015626-9.292968zm0 0" fill="#b0d3f0"/><path d="m141.101562 339.386719 50.128907 14.066406c4.617187 1.292969 7.308593 6.085937 6.011719 10.699219l-14.066407 50.132812c-1.292969 4.613282-6.082031 7.304688-10.699219 6.011719l-50.132812-14.066406c-4.613281-1.296875-7.304688-6.085938-6.007812-10.699219l14.0625-50.132812c1.296874-4.617188 6.085937-7.304688 10.703124-6.011719zm0 0" fill="#e4c05c"/><path d="m357.105469 125.328125 50.949219-10.726563c4.691406-.988281 9.292968 2.011719 10.28125 6.703126l10.726562 50.949218c.984375 4.691406-2.015625 9.292969-6.707031 10.28125l-50.949219 10.726563c-4.691406.988281-9.292969-2.015625-10.28125-6.703125l-10.726562-50.953125c-.984376-4.6875 2.015624-9.292969 6.707031-10.277344zm0 0" fill="#e4c05c"/></svg>